<svg xmlns="http://www.w3.org/2000/svg" viewBox="-54 -54 108 108" role="img" aria-label="Vaultwarden">
  <mask id="holes">
    <rect x="-54" y="-54" width="108" height="108" fill="#fff"/>
    <circle id="h" cy="-40" r="3"/>
    <use href="#h" transform="rotate(72)"/>
    <use href="#h" transform="rotate(144)"/>
    <use href="#h" transform="rotate(216)"/>
    <use href="#h" transform="rotate(288)"/>
  </mask>
  <g mask="url(#holes)" fill="none" stroke="#fff" stroke-linejoin="round">
    <path d="m-31.1718-33.813208 26.496029 74.188883h9.3515399l26.49603-74.188883h-9.767164l-16.728866 47.588948q-1.662496 4.571864-2.805462 8.624198-1.142966 3.948427-1.870308 7.585137-.72734199-3.63671-1.8703079-7.689043-1.142966-4.052334-2.805462-8.728104z" fill="#fff" stroke-width="4.51"/>
    <circle r="43" stroke-width="9"/>
    <g>
      <polygon id="t" points="46 -3 46 3 51 0" stroke-width="3"/>
      <use href="#t" transform="rotate(11.25)"/>
      <use href="#t" transform="rotate(22.5)"/>
      <use href="#t" transform="rotate(33.75)"/>
      <use href="#t" transform="rotate(45)"/>
      <use href="#t" transform="rotate(56.25)"/>
      <use href="#t" transform="rotate(67.5)"/>
      <use href="#t" transform="rotate(78.75)"/>
      <use href="#t" transform="rotate(90)"/>
      <use href="#t" transform="rotate(101.25)"/>
      <use href="#t" transform="rotate(112.5)"/>
      <use href="#t" transform="rotate(123.75)"/>
      <use href="#t" transform="rotate(135)"/>
      <use href="#t" transform="rotate(146.25)"/>
      <use href="#t" transform="rotate(157.5)"/>
      <use href="#t" transform="rotate(168.75)"/>
      <use href="#t" transform="rotate(180)"/>
      <use href="#t" transform="rotate(191.25)"/>
      <use href="#t" transform="rotate(202.5)"/>
      <use href="#t" transform="rotate(213.75)"/>
      <use href="#t" transform="rotate(225)"/>
      <use href="#t" transform="rotate(236.25)"/>
      <use href="#t" transform="rotate(247.5)"/>
      <use href="#t" transform="rotate(258.75)"/>
      <use href="#t" transform="rotate(270)"/>
      <use href="#t" transform="rotate(281.25)"/>
      <use href="#t" transform="rotate(292.5)"/>
      <use href="#t" transform="rotate(303.75)"/>
      <use href="#t" transform="rotate(315)"/>
      <use href="#t" transform="rotate(326.25)"/>
      <use href="#t" transform="rotate(337.5)"/>
      <use href="#t" transform="rotate(348.75)"/>
    </g>
    <g>
      <polygon id="m" points="7 -42 -7 -42 0 -35" stroke-width="6"/>
      <use href="#m" transform="rotate(72)"/>
      <use href="#m" transform="rotate(144)"/>
      <use href="#m" transform="rotate(216)"/>
      <use href="#m" transform="rotate(288)"/>
    </g>
  </g>
</svg>
